<svg width="256" height="256" viewBox="0 0 256 256" fill="none" xmlns="http://www.w3.org/2000/svg">
  <rect x="16" y="16" width="224" height="224" rx="52" fill="#14131B"/>
  <rect x="17" y="17" width="222" height="222" rx="51" stroke="#FFFFFF" stroke-opacity="0.06" stroke-width="2"/>
  <path
    d="M75 164L112.8 84.5C119.2 71.1 136.8 71.1 143.2 84.5L181 164"
    stroke="#A996FF"
    stroke-width="17"
    stroke-linecap="round"
    stroke-linejoin="round"
  />
  <path
    d="M96 149C117.8 122.3 138.2 122.3 160 149"
    stroke="#D8CEFF"
    stroke-width="13"
    stroke-linecap="round"
  />
  <path
    d="M78 130C91.4 109.8 111.9 98 128 98C144.1 98 164.6 109.8 178 130C164.6 150.2 144.1 162 128 162C111.9 162 91.4 150.2 78 130Z"
    stroke="#7E65D8"
    stroke-width="10"
    stroke-linecap="round"
    stroke-linejoin="round"
    opacity="0.78"
  />
  <circle cx="128" cy="130" r="7" fill="#D8CEFF"/>
</svg>
